<?xml version="1.0" standalone="no"?>
<!DOCTYPE svg PUBLIC "-//W3C//DTD SVG 20010904//EN"
 "http://www.w3.org/TR/2001/REC-SVG-20010904/DTD/svg10.dtd">
<svg version="1.0" xmlns="http://www.w3.org/2000/svg"
 width="500.000000pt" height="500.000000pt" viewBox="0 0 500.000000 500.000000"
 preserveAspectRatio="xMidYMid meet">
<metadata>
Created by potrace 1.16, written by Peter Selinger 2001-2019
</metadata>
<g transform="translate(0.000000,500.000000) scale(0.100000,-0.100000)"
fill="#000000" stroke="none">
<path d="M2536 4153 c-4 -49 -10 -96 -12 -105 -4 -12 0 -18 10 -18 12 0 16 12
17 53 0 28 3 70 7 92 l8 40 49 -97 c47 -92 52 -98 81 -98 l31 0 9 105 c6 76 6
105 -2 105 -11 0 -24 -72 -24 -140 l0 -35 -18 23 c-10 13 -34 55 -53 93 -31
63 -37 69 -65 69 l-32 0 -6 -87z"/>
<path d="M2254 4224 c-8 -3 -9 -16 -3 -42 5 -20 9 -40 9 -44 0 -8 -92 -28
-101 -22 -4 2 -10 22 -14 44 -7 40 -11 45 -38 34 -11 -4 -13 -14 -6 -47 4 -23
13 -68 19 -99 10 -52 14 -58 36 -58 19 0 24 4 20 18 -2 9 -7 31 -11 49 -7 35
0 39 70 45 27 3 30 0 40 -42 9 -39 13 -45 33 -42 26 4 25 1 12 55 -5 23 -14
68 -20 100 -11 54 -18 62 -46 51z"/>
<path d="M2983 4148 c-5 -7 -22 -47 -36 -88 -32 -87 -32 -86 62 -124 81 -33
95 -33 110 2 29 61 52 133 49 148 -2 9 -33 28 -73 45 -79 32 -98 34 -112 17z
m99 -35 c24 -9 44 -17 46 -18 4 -3 -49 -139 -58 -149 -10 -11 -100 23 -100 38
0 21 52 146 61 146 5 0 28 -7 51 -17z"/>
<path d="M1438 3848 l-57 -50 66 -77 c37 -42 69 -77 72 -78 3 -1 33 22 66 52
67 60 70 88 4 31 -24 -20 -46 -36 -50 -36 -4 0 -17 13 -28 29 l-21 29 46 35
c27 21 41 38 34 42 -6 4 -29 -10 -52 -30 l-40 -37 -23 28 -23 29 46 42 c26 23
40 42 32 42 -8 0 -41 -23 -72 -51z"/>
<path d="M3750 3641 c-8 -5 -59 -19 -113 -31 -58 -13 -95 -26 -90 -31 5 -5 23
-5 42 1 30 8 36 7 55 -17 45 -57 45 -55 28 -90 -15 -31 -15 -35 1 -50 9 -9 18
-15 20 -12 13 19 97 188 97 196 0 21 -25 42 -40 34z"/>
<path d="M2290 3469 c-156 -41 -314 -134 -495 -291 -146 -127 -189 -173 -182
-192 15 -40 112 -8 242 78 114 75 261 143 374 172 93 24 117 26 225 21 137 -5
236 -32 367 -98 79 -39 98 -59 74 -79 -18 -15 -67 -17 -216 -6 -108 7 -130 6
-157 -8 -18 -9 -32 -22 -32 -30 0 -12 229 -84 440 -138 135 -35 348 -20 448
31 127 65 214 179 266 348 l7 21 -62 -19 c-121 -38 -307 -16 -529 62 -227 80
-351 119 -420 134 -101 21 -257 18 -350 -6z"/>
<path d="M2385 2911 c-22 -10 -46 -25 -54 -34 -7 -10 -25 -17 -40 -17 -54 -1
-85 -32 -140 -141 -29 -57 -33 -72 -25 -105 l8 -39 6 58 c5 57 17 75 50 78 8
1 20 3 25 4 6 2 14 3 18 4 11 1 -11 41 -23 41 -5 0 -7 -7 -4 -15 4 -10 0 -15
-15 -15 -20 0 -21 2 -7 28 16 31 63 76 88 85 9 3 28 -3 41 -14 32 -24 41 -24
27 0 -14 27 -14 27 25 51 21 13 47 20 66 18 l32 -3 -2 -269 c-1 -157 -6 -277
-12 -288 -22 -41 -92 -46 -104 -7 -5 15 3 28 32 54 21 18 35 37 30 41 -4 4
-23 -7 -41 -25 -32 -31 -36 -33 -69 -22 -43 14 -54 27 -60 66 -2 20 -10 31
-23 34 -27 4 -54 31 -54 52 0 10 17 31 37 48 20 17 34 33 31 36 -10 10 -66
-23 -78 -44 -23 -44 1 -111 41 -111 12 0 19 -7 19 -19 0 -27 37 -70 76 -86 19
-8 34 -18 34 -24 0 -22 33 -41 71 -41 50 0 89 37 89 84 0 17 1 142 2 278 2
151 -1 251 -7 257 -21 19 -51 20 -90 2z"/>
<path d="M2510 2925 c0 -3 -1 -146 -1 -317 l0 -313 22 -3 c20 -4 21 -1 15 39
l-7 42 70 -6 c75 -6 95 3 67 31 -13 13 -19 14 -39 3 -13 -7 -39 -11 -58 -9
-33 3 -34 4 -37 51 l-3 47 54 0 c48 0 56 -3 75 -30 14 -19 32 -30 47 -30 13 0
27 -4 30 -10 10 -16 42 -12 49 6 10 27 -4 35 -47 29 -39 -6 -44 -4 -65 24 -21
29 -27 31 -82 31 -58 0 -60 1 -60 26 l0 26 124 -4 124 -3 0 23 c0 17 -4 20
-11 13 -14 -14 -77 -15 -77 -1 0 5 5 21 12 35 9 19 19 25 45 25 18 0 33 5 33
10 0 6 -18 10 -39 10 -36 0 -42 -4 -63 -42 -23 -43 -24 -43 -86 -46 l-62 -3 0
37 0 37 65 -6 c66 -6 80 -1 69 27 -7 18 -39 22 -49 6 -3 -5 -24 -10 -46 -10
l-39 0 0 70 c0 68 1 70 25 70 21 0 25 -5 25 -30 0 -17 6 -32 13 -35 6 -2 56
-5 109 -8 80 -3 98 -2 103 11 9 24 -12 39 -35 24 -11 -6 -51 -12 -90 -12 -68
0 -70 1 -70 26 0 24 2 25 45 18 41 -6 45 -5 45 15 0 25 -26 39 -43 22 -6 -6
-37 -11 -69 -11 -54 0 -58 2 -58 23 0 12 4 28 9 36 13 20 2 41 -20 41 -10 0
-19 -2 -19 -5z"/>
<path d="M1805 2309 c-100 -13 -195 -60 -255 -126 -48 -52 -103 -150 -116
-206 -6 -27 -6 -27 22 -15 46 18 237 16 326 -5 43 -10 157 -47 255 -82 209
-74 300 -95 420 -95 180 0 338 66 533 221 83 66 220 200 220 215 0 9 -13 14
-38 14 -28 0 -60 -14 -127 -55 -133 -81 -304 -163 -382 -181 -100 -25 -249
-22 -347 5 -95 26 -223 87 -237 112 -18 34 20 41 172 34 120 -7 142 -5 164 9
35 23 32 31 -17 43 -24 6 -114 31 -200 56 -87 26 -182 49 -210 52 -29 3 -66 7
-83 9 -16 2 -61 -1 -100 -5z"/>
<path d="M3516 1688 c-20 -23 -36 -47 -36 -54 0 -20 91 -95 104 -86 7 4 30 26
51 50 l38 43 -43 44 c-25 25 -52 45 -61 45 -10 0 -34 -19 -53 -42z"/>
</g>
</svg>
